<svg xmlns="http://www.w3.org/2000/svg" viewBox="0 0 512 512">
  <defs>
    <linearGradient id="bg" x1="0%" y1="0%" x2="100%" y2="100%">
      <stop offset="0%" style="stop-color:#0f766e"/>
      <stop offset="100%" style="stop-color:#14b8a6"/>
    </linearGradient>
  </defs>
  <!-- Background -->
  <rect width="512" height="512" rx="96" fill="url(#bg)"/>
  <!-- Liver Icon (simplified) -->
  <g transform="translate(96, 96)">
    <!-- Main liver shape -->
    <path
      d="M160 20 C240 20 300 60 300 140 C300 200 260 260 200 280 C160 300 100 300 60 260 C20 220 20 160 40 100 C60 60 100 20 160 20Z"
      fill="white"
      opacity="0.9"
    />
    <!-- Vein lines -->
    <path
      d="M160 60 L160 180 M160 120 L120 160 M160 120 L200 160"
      stroke="#0f766e"
      stroke-width="12"
      stroke-linecap="round"
      fill="none"
    />
  </g>
  <!-- Calculator element -->
  <g transform="translate(300, 300)">
    <rect x="0" y="0" width="140" height="160" rx="16" fill="white"/>
    <rect x="15" y="15" width="110" height="40" rx="8" fill="#0f766e"/>
    <circle cx="40" cy="90" r="12" fill="#14b8a6"/>
    <circle cx="70" cy="90" r="12" fill="#14b8a6"/>
    <circle cx="100" cy="90" r="12" fill="#14b8a6"/>
    <circle cx="40" cy="125" r="12" fill="#14b8a6"/>
    <circle cx="70" cy="125" r="12" fill="#14b8a6"/>
    <circle cx="100" cy="125" r="12" fill="#0f766e"/>
  </g>
</svg>
